Coordinates
version=1
nRows=24
nColumns=24
inDegrees=yes

Units are S.I. units (second, meters, Newtons, ...)
Angles are in degrees.

endheader
time	torso_tilt	torso_list	torso_rotation	torso_tx	torso_ty	torso_tz	lumbar_extension	lumbar_bending	lumbar_rotation	hip_flexion_r	hip_adduction_r	hip_rotation_r	knee_angle_r	ankle_angle_r	subtalar_angle_r	mtp_angle_r	hip_flexion_l	hip_adduction_l	hip_rotation_l	knee_angle_l	ankle_angle_l	subtalar_angle_l	mtp_angle_l
     45.72000000	    -10.51333661	      0.60461915	     -1.14588434	     -0.14830377	      1.00400582	      0.02791362	     13.18979351	     -2.09612518	     -0.07127382	     -6.54021581	      7.00876502	     -0.47885280	     -8.20820015	     10.61012270	     -2.71677444	      0.00000000	     26.69550516	     -2.20263338	     -1.49492488	    -51.77224355	      2.30145092	     -6.25383071	      0.00000000
     45.73000000	    -10.63006683	      0.62157878	     -1.08243403	     -0.14941570	      1.00385770	      0.02772158	     13.17245074	     -2.09296927	     -0.33876806	     -7.06699967	      6.91638835	     -0.30118465	     -8.13641202	     10.79478085	     -2.28312459	      0.00000000	     26.93088551	     -2.15653726	     -1.43524769	    -48.33785844	      1.98664073	     -6.15614659	      0.00000000
     45.74000000	    -10.74835445	      0.65218089	     -1.01587522	     -0.15048238	      1.00340432	      0.02740250	     13.13671601	     -2.20482985	     -0.58897411	     -7.62252737	      6.92649915	     -0.03086002	     -7.94115215	     10.95440892	     -2.17538358	      0.00000000	     27.10423242	     -2.20723046	     -1.31213758	    -44.76703853	      1.59754993	     -5.98242351	      0.00000000
     45.75000000	    -10.87776481	      0.68864470	     -0.96768827	     -0.15152451	      1.00267534	      0.02704685	     13.12973328	     -2.38492890	     -0.77175391	     -8.25049595	      7.04185759	      0.31028963	     -7.64499426	     11.11200443	     -2.25276675	      0.00000000	     27.16812724	     -2.31820795	     -1.11872263	    -41.11491214	      1.24914285	     -5.65116199	      0.00000000
     45.76000000	    -10.99135855	      0.74038915	     -0.93278201	     -0.15244995	      1.00202306	      0.02656891	     13.05992464	     -2.58606410	     -0.94858054	     -8.79441856	      7.12002648	      0.49076468	     -7.42820290	     11.29854949	     -2.04826307	      0.00000000	     27.13349498	     -2.44345252	     -0.99893098	    -37.25296030	      0.95675202	     -5.33450531	      0.00000000
     45.77000000	    -11.10638248	      0.80421017	     -0.91189023	     -0.15329185	      1.00124410	      0.02596070	     12.97860636	     -2.83153777	     -1.07729944	     -9.34234102	      7.21950250	      0.54944959	     -7.16350550	     11.46001960	     -1.71790022	      0.00000000	     27.00633084	     -2.58178841	     -0.79142929	    -33.27436219	      0.90285556	     -4.73447019	      0.00000000
     45.78000000	    -11.21393523	      0.88487332	     -0.90575908	     -0.15403171	      1.00028154	      0.02521562	     12.90764752	     -3.10766999	     -1.14361182	     -9.94207135	      7.31528454	      0.44028855	     -6.85217649	     11.62964577	     -1.22148077	      0.00000000	     26.74607365	     -2.70880212	     -0.56178954	    -29.22781120	      1.02284657	     -4.05120041	      0.00000000
     45.79000000	    -11.33135663	      0.97225856	     -0.88267897	     -0.15477783	      0.99917098	      0.02442145	     12.80621062	     -3.45940893	     -1.25271020	    -10.49216341	      7.48699116	      0.44727822	     -6.58005021	     11.78982279	     -0.77890463	      0.00000000	     26.46080120	     -2.93583886	     -0.44692780	    -25.19004376	      1.23886860	     -3.10435976	      0.00000000
     45.80000000	    -11.42816068	      1.06547711	     -0.90104927	     -0.15534042	      0.99813519	      0.02355673	     12.66920105	     -3.82461076	     -1.25598383	    -11.00504780	      7.66909898	      0.31323569	     -6.30430032	     11.91764069	     -0.31235083	      0.00000000	     26.10883378	     -3.15196201	     -0.36109447	    -21.14426090	      1.50265350	     -2.26609569	      0.00000000
     45.81000000	    -11.51960591	      1.14405733	     -0.90650774	     -0.15577152	      0.99685467	      0.02270916	     12.48363466	     -4.20824252	     -1.21734173	    -11.48190186	      7.90293312	      0.21185665	     -6.04631914	     12.04732247	     -0.05107048	      0.00000000	     25.74383557	     -3.36674041	     -0.25141893	    -17.17817842	      1.74554377	     -1.44863486	      0.00000000
     45.82000000	    -11.60480651	      1.22818637	     -0.92250830	     -0.15619222	      0.99530026	      0.02182991	     12.36682769	     -4.60020832	     -1.11811759	    -12.04527083	      8.16998779	      0.12632449	     -5.82871374	     12.13897944	      0.14207529	      0.00000000	     25.33939214	     -3.57107469	     -0.17158219	    -13.56625968	      2.12457630	     -1.02068647	      0.00000000
     45.83000000	    -11.66947445	      1.32584195	     -0.92315204	     -0.15645577	      0.99390306	      0.02079059	     12.16290119	     -4.99452631	     -1.07127445	    -12.42699816	      8.40393634	      0.04692739	     -5.84119722	     12.25213101	      0.40485003	      0.00000000	     25.06977540	     -3.76151191	     -0.28670659	    -10.38663852	      2.37039015	     -0.32683636	      0.00000000
     45.84000000	    -11.73055754	      1.41783150	     -0.92938552	     -0.15664483	      0.99248782	      0.01978215	     11.99376794	     -5.30239605	     -1.00636581	    -12.80725294	      8.55351404	     -0.03303569	     -5.93548741	     12.24980117	      0.77683890	      0.00000000	     24.78347535	     -3.86254873	     -0.40487203	     -7.70644898	      2.81807047	     -0.30015162	      0.00000000
     45.85000000	    -11.76592293	      1.50022561	     -0.94177941	     -0.15662668	      0.99110032	      0.01878061	     11.83766695	     -5.51391165	     -0.94631908	    -13.20202652	      8.58974550	     -0.02210696	     -6.08498885	     12.37770283	      0.98019378	      0.00000000	     24.46596463	     -3.84385760	     -0.67807560	     -5.45979433	      3.19814336	      0.17459493	      0.00000000
     45.86000000	    -11.80319897	      1.58653920	     -0.97913458	     -0.15658067	      0.98968195	      0.01769066	     11.87597512	     -5.65767953	     -0.94509899	    -13.73117402	      8.52108352	     -0.05663148	     -6.43567721	     12.44586432	      1.27331353	      0.00000000	     23.99212131	     -3.72656661	     -1.49302895	     -3.82392342	      3.49158571	      1.93525786	      0.00000000
     45.87000000	    -11.79550396	      1.65792217	     -1.00280067	     -0.15623131	      0.98848468	      0.01667730	     11.83415126	     -5.75928743	     -0.97302940	    -14.20842569	      8.42262011	     -0.01407024	     -6.82741397	     12.45333390	      1.39952076	      0.00000000	     23.66956810	     -3.61586113	     -2.32428890	     -3.00957487	      4.36565069	      1.98813663	      0.00000000
     45.88000000	    -11.77099236	      1.72173178	     -1.04873150	     -0.15571199	      0.98716183	      0.01566607	     11.83411926	     -5.81418174	     -0.97453988	    -14.72422599	      8.27578619	     -0.02466069	     -7.28880611	     12.50104421	      1.63062957	      0.00000000	     23.48367264	     -3.41997340	     -3.47591535	     -3.09586047	      5.11454499	      3.16265127	      0.00000000
     45.89000000	    -11.74536336	      1.78243361	     -1.09675509	     -0.15505907	      0.98590360	      0.01461349	     11.79654622	     -5.77478123	     -0.96454661	    -15.11640687	      8.02227232	     -0.11742037	     -7.89818239	     12.45057064	      1.85245495	      0.00000000	     23.36989131	     -3.17800258	     -3.90110886	     -3.76639429	      4.88093498	      3.11325993	      0.00000000
     45.90000000	    -11.68475847	      1.86452554	     -1.13832737	     -0.15417116	      0.98488560	      0.01337828	     11.72675113	     -5.68955003	     -0.93163204	    -15.45779560	      7.67223954	     -0.51090909	     -8.65243351	     12.42638503	      2.25506818	      0.00000000	     23.21884458	     -2.85740796	     -3.58361187	     -4.67221212	      4.10460664	      1.79967677	      0.00000000
     45.91000000	    -11.59931116	      1.93683539	     -1.17691735	     -0.15307311	      0.98393894	      0.01217612	     11.67347226	     -5.55469497	     -0.89682676	    -15.79604681	      7.26261763	     -0.92896912	     -9.53257908	     12.36242114	      2.73005024	      0.00000000	     22.98737815	     -2.46668706	     -3.26934611	     -5.47836216	      3.84411322	      0.56895819	      0.00000000
     45.92000000	    -11.49836116	      1.99102427	     -1.25474345	     -0.15177431	      0.98318188	      0.01101123	     11.58778582	     -5.32177339	     -0.79666212	    -16.03065398	      6.77027580	     -1.44213479	    -10.56525166	     12.14994052	      3.23077140	      0.00000000	     22.77185710	     -1.94889312	     -2.99811437	     -6.22999274	      2.96710670	      0.12845845	      0.00000000
     45.93000000	    -11.39001827	      2.03382956	     -1.30820070	     -0.15037867	      0.98262228	      0.00989670	     11.44128949	     -5.07478973	     -0.69760340	    -16.09910835	      6.28229747	     -1.95753523	    -11.77883441	     11.84412021	      3.58801746	      0.00000000	     22.64880762	     -1.41841660	     -2.56562829	     -7.05664039	      1.75239960	     -1.20005562	      0.00000000
     45.94000000	    -11.25275135	      2.04100238	     -1.38726000	     -0.14878971	      0.98240928	      0.00896812	     11.23860879	     -4.76707495	     -0.58954403	    -16.04478374	      5.77263952	     -2.47086655	    -13.16640253	     11.28715133	      3.87077572	      0.00000000	     22.51206367	     -0.90195130	     -2.32641411	     -7.78063075	      0.22745441	     -1.93474094	      0.00000000
     45.95000000	    -11.10567583	      2.03440693	     -1.49932006	     -0.14707059	      0.98219196	      0.00811003	     11.03615323	     -4.46632842	     -0.40309347	    -15.90090346	      5.30779157	     -2.95613796	    -14.73715884	     10.53489471	      4.00786688	      0.00000000	     22.36876824	     -0.42432076	     -2.07013104	     -8.55331266	     -1.24238931	     -2.72585949	      0.00000000
